<svg xmlns="http://www.w3.org/2000/svg" fill="none" viewBox="2.81 4.69 88.33 21.56">
<path d="M32.6 23V8.6H34.69V21.03H41.21V23H32.6ZM43.1078 10.43V8.4H45.1978V10.43H43.1078ZM43.1078 23V12.2H45.1978V23H43.1078ZM51.1208 23L47.2008 12.2H49.3108L52.1808 20.38L55.0508 12.2H57.1608L53.2408 23H51.1208ZM58.9625 23V8.6H63.4725C63.6058 8.6 63.8525 8.60333 64.2125 8.61C64.5792 8.61667 64.9292 8.64333 65.2625 8.69C66.3892 8.83 67.3358 9.23333 68.1025 9.9C68.8758 10.5667 69.4592 11.4133 69.8525 12.44C70.2458 13.46 70.4425 14.58 70.4425 15.8C70.4425 17.0267 70.2458 18.1533 69.8525 19.18C69.4592 20.2 68.8758 21.0433 68.1025 21.71C67.3358 22.37 66.3892 22.77 65.2625 22.91C64.9292 22.9567 64.5792 22.9833 64.2125 22.99C63.8525 22.9967 63.6058 23 63.4725 23H58.9625ZM61.1025 21.01H63.4725C63.6992 21.01 63.9692 21.0033 64.2825 20.99C64.5958 20.9767 64.8725 20.95 65.1125 20.91C65.8458 20.77 66.4392 20.4533 66.8925 19.96C67.3525 19.46 67.6892 18.8467 67.9025 18.12C68.1158 17.3933 68.2225 16.62 68.2225 15.8C68.2225 14.9533 68.1125 14.17 67.8925 13.45C67.6725 12.7233 67.3325 12.1167 66.8725 11.63C66.4192 11.1367 65.8325 10.8233 65.1125 10.69C64.8725 10.6433 64.5925 10.6167 64.2725 10.61C63.9592 10.5967 63.6925 10.59 63.4725 10.59H61.1025V21.01ZM77.4611 23.3C76.3811 23.3 75.4444 23.0567 74.6511 22.57C73.8578 22.0833 73.2444 21.4133 72.8111 20.56C72.3844 19.7 72.1711 18.71 72.1711 17.59C72.1711 16.4633 72.3911 15.4733 72.8311 14.62C73.2711 13.76 73.8878 13.0933 74.6811 12.62C75.4744 12.14 76.4011 11.9 77.4611 11.9C78.5411 11.9 79.4778 12.1433 80.2711 12.63C81.0644 13.1167 81.6778 13.7867 82.1111 14.64C82.5444 15.4933 82.7611 16.4767 82.7611 17.59C82.7611 18.7167 82.5411 19.71 82.1011 20.57C81.6678 21.4233 81.0544 22.0933 80.2611 22.58C79.4678 23.06 78.5344 23.3 77.4611 23.3ZM77.4611 21.33C78.4944 21.33 79.2644 20.9833 79.7711 20.29C80.2844 19.59 80.5411 18.69 80.5411 17.59C80.5411 16.4633 80.2811 15.5633 79.7611 14.89C79.2478 14.21 78.4811 13.87 77.4611 13.87C76.7611 13.87 76.1844 14.03 75.7311 14.35C75.2778 14.6633 74.9411 15.1 74.7211 15.66C74.5011 16.2133 74.3911 16.8567 74.3911 17.59C74.3911 18.7233 74.6511 19.63 75.1711 20.31C75.6911 20.99 76.4544 21.33 77.4611 21.33ZM91.1386 23C90.4586 23.1333 89.7919 23.19 89.1386 23.17C88.4853 23.15 87.9019 23.0233 87.3886 22.79C86.8753 22.5567 86.4886 22.19 86.2286 21.69C85.9953 21.2433 85.8686 20.79 85.8486 20.33C85.8353 19.8633 85.8286 19.3367 85.8286 18.75V9.2H87.9286V18.65C87.9286 19.0833 87.9319 19.46 87.9386 19.78C87.9519 20.1 88.0219 20.37 88.1486 20.59C88.3886 21.0033 88.7686 21.24 89.2886 21.3C89.8153 21.3533 90.4319 21.33 91.1386 21.23V23ZM83.7586 13.88V12.2H91.1386V13.88H83.7586Z" fill="#1E1F24"/>
<path d="M15.7125 18.1395C15.6245 18.0367 15.5153 17.9543 15.3924 17.8977C15.2695 17.8412 15.1359 17.8119 15.0006 17.8119C14.8653 17.8119 14.7317 17.8412 14.6088 17.8977C14.4859 17.9543 14.3767 18.0367 14.2887 18.1395L8.66367 24.702C8.54688 24.838 8.47157 25.0048 8.44668 25.1824C8.42179 25.36 8.44836 25.541 8.52324 25.7039C8.59811 25.8669 8.71816 26.0049 8.86913 26.1017C9.0201 26.1985 9.19567 26.25 9.375 26.25H20.625C20.8043 26.25 20.9799 26.1985 21.1309 26.1017C21.2818 26.0049 21.4019 25.8669 21.4768 25.7039C21.5516 25.541 21.5782 25.36 21.5533 25.1824C21.5284 25.0048 21.4531 24.838 21.3363 24.702L15.7125 18.1395ZM11.4129 24.375L15 20.1902L18.5871 24.375H11.4129ZM27.1875 7.5V20.625C27.1875 21.3709 26.8912 22.0863 26.3637 22.6137C25.8363 23.1412 25.1209 23.4375 24.375 23.4375H23.4375C23.1889 23.4375 22.9504 23.3387 22.7746 23.1629C22.5988 22.9871 22.5 22.7486 22.5 22.5C22.5 22.2514 22.5988 22.0129 22.7746 21.8371C22.9504 21.6613 23.1889 21.5625 23.4375 21.5625H24.375C24.6236 21.5625 24.8621 21.4637 25.0379 21.2879C25.2137 21.1121 25.3125 20.8736 25.3125 20.625V7.5C25.3125 7.25136 25.2137 7.0129 25.0379 6.83709C24.8621 6.66127 24.6236 6.5625 24.375 6.5625H5.625C5.37636 6.5625 5.1379 6.66127 4.96209 6.83709C4.78627 7.0129 4.6875 7.25136 4.6875 7.5V20.625C4.6875 20.8736 4.78627 21.1121 4.96209 21.2879C5.1379 21.4637 5.37636 21.5625 5.625 21.5625H6.5625C6.81114 21.5625 7.0496 21.6613 7.22541 21.8371C7.40123 22.0129 7.5 22.2514 7.5 22.5C7.5 22.7486 7.40123 22.9871 7.22541 23.1629C7.0496 23.3387 6.81114 23.4375 6.5625 23.4375H5.625C4.87908 23.4375 4.16371 23.1412 3.63626 22.6137C3.10882 22.0863 2.8125 21.3709 2.8125 20.625V7.5C2.8125 6.75408 3.10882 6.03871 3.63626 5.51126C4.16371 4.98382 4.87908 4.6875 5.625 4.6875H24.375C25.1209 4.6875 25.8363 4.98382 26.3637 5.51126C26.8912 6.03871 27.1875 6.75408 27.1875 7.5Z" fill="#1E1F24"/>
</svg>